<?xml version="1.0" encoding="iso-8859-1" standalone="yes"?>
<!DOCTYPE svg PUBLIC "-//W3C//DTD SVG 1.1//EN" "http://www.w3.org/Graphics/SVG/1.1/DTD/svg11.dtd">
<!-- Generator: Adobe Illustrator 16.0.0, SVG Export Plug-In . SVG Version: 6.00 Build 0)  --><svg xmlns="http://www.w3.org/2000/svg" xmlns:xlink="http://www.w3.org/1999/xlink" id="Capa_1" style="enable-background:new 0 0 961.5 961.5;zoom: 1;" xml:space="preserve" version="1.1" x="0px" y="0px" width="32px" height="32px" cursor="default" viewBox="0 0 961.5 961.5"><g fill="white"><path d="M940.100037,500.600006 L513.800049,568.299988 L822.800049,610.799988 C909.400024,614.700012 943.400024,560.200012 956.000061,527.5 C960.600037,515.5 952.800049,502.299988 940.100037,500.600006  z "></path><path d="M2.400063,294.699951 C-7.09994,355.299957 13.599032,413.699951 53.400055,454.399963 C80.799042,434.399963 149.799042,413.598969 151.700043,413.298981 C126.100006,402.999939 105.000038,381.899933 95.500038,353.699951 C78.20005,302.399963 105.800026,246.799973 157.100021,229.59996 C208.401047,212.299973 264.000031,239.899963 281.201019,291.199982 C294.501007,330.699982 281.201019,372.699982 251.001007,397.799988 L365.400055,379.899963 C368.299042,370.699951 370.500031,361.199951 372.000031,351.399963 C387.300079,249.399963 318.000031,154.999969 216.100082,138.999954 C114.200058,122.999954 18.500044,192.699951 2.400063,294.699951  z "></path><path d="M105.600006,469.499939 C98.701019,472.799927 92.000031,476.599945 85.500031,480.799927 C33.199982,514.599915 0.000026,573.40094 0.000024,637.599915 C0.000023,647.299927 0.800011,656.999939 2.30001,666.90094 C18.500017,768.799927 114.200027,838.499939 216.099991,822.499939 C308.500031,807.999939 374.100006,728.999939 374.100006,638.299927 C374.100006,628.999939 373.401031,619.599915 372.000031,610.099915 C368.699982,588.099915 361.699982,567.499939 351.699982,548.999939 L953.000061,455.399994 C958.000061,454.598999 961.500061,450.298981 961.500061,445.5 C961.500061,444.5 961.400024,443.600006 961.100037,442.600006 C952.600037,414.401001 921.000061,342.799988 822.000061,349.099976 C821.300049,349.200958 164.000031,451.799957 161.600006,452.200958 C142.300018,455.199982 123.200043,460.999939 105.600006,469.499939 C105.700043,469.399933 105.700043,469.399933 105.600006,469.499939  z M219.600006,546.199951 C260.500031,559.999939 286.400055,598.099915 286.400055,639.099915 C286.400055,649.499939 284.700043,659.999939 281.299042,670.40094 C264.000031,721.699951 208.500015,749.299927 157.200027,731.999939 C116.300011,718.199951 90.400047,680.099915 90.400047,639.099915 C90.400047,628.700928 92.099022,618.200928 95.500023,607.799927 C112.700043,556.599915 168.300018,528.999939 219.600006,546.199951  z "></path></g><g></g><g></g><g></g><g></g><g></g><g></g><g></g><g></g><g></g><g></g><g></g><g></g><g></g><g></g><g></g></svg>