<?xml version="1.0" encoding="iso-8859-1" standalone="yes"?>
<!DOCTYPE svg PUBLIC "-//W3C//DTD SVG 1.1//EN" "http://www.w3.org/Graphics/SVG/1.1/DTD/svg11.dtd">
<!-- Generator: Adobe Illustrator 16.0.0, SVG Export Plug-In . SVG Version: 6.00 Build 0)  --><svg xmlns="http://www.w3.org/2000/svg" xmlns:xlink="http://www.w3.org/1999/xlink" version="1.1" id="Capa_1" x="0px" y="0px" width="32px" height="32px" viewBox="0 0 861.321 861.321" style="enable-background:new 0 0 861.321 861.321;zoom: 1;" xml:space="preserve"><g><g><path d="M662.979,164.127c37.5-91.9-20.299-144.6-44.199-161.7c-4.899-3.5-11.899-1.8-14.7,3.5l-150.899,290.6l70.399,135.6 L662.979,164.127z"></path><g><path d="M100.579,839.526c91.6,47.7,204.5,12.2,252.2-79.3l0.3,0.2l55-105.9l-70.399-135.6l-14.101,27.1 c-14.399-15.399-31.6-28.6-51.399-38.699c-91.8-47-203.3-11.4-251,80C-26.521,678.927,9.079,791.827,100.579,839.526z M186.179,574.127c54.1,0,98,43.899,98,98c0,54.1-43.9,98-98,98c-54.1,0-98-43.9-98-98 C88.179,618.026,131.979,574.127,186.179,574.127z"></path><path d="M840.078,587.327 c-33.398,-64.101 -98.199,-100.7 -165.6,-100.7 c-28.699,0 -57.899,6.7 -85.399,20.7 c-19.8,10.199 -37.1,23.399 -51.399,38.699 c0,0 -280,-539.2 -280.5,-540.1 c-2.601,-5.1 -9.7,-7.1 -14.7,-3.5 c-24,17.1 -81.8,69.8 -44.2,161.7 l309.901,596.2 l0.3,-0.2 c33.3,63.899 98.5,100.6 165.899,100.6 c29.1,0 58.699,-6.8 86.301,-21.2 C852.279,791.827 887.879,678.927 840.078,587.327  z M675.18,770.127 c-54.101,0 -98,-43.9 -98,-98 c0,-54.101 43.899,-98 98,-98 c54.1,0 98,43.899 98,98 C773.18,726.227 729.279,770.127 675.18,770.127  z "></path></g></g></g><g></g><g></g><g></g><g></g><g></g><g></g><g></g><g></g><g></g><g></g><g></g><g></g><g></g><g></g><g></g></svg>