<?xml version="1.0" encoding="iso-8859-1" standalone="yes"?>
<!DOCTYPE svg PUBLIC "-//W3C//DTD SVG 1.1//EN" "http://www.w3.org/Graphics/SVG/1.1/DTD/svg11.dtd">
<!-- Generator: Adobe Illustrator 16.0.0, SVG Export Plug-In . SVG Version: 6.00 Build 0)  --><svg xmlns="http://www.w3.org/2000/svg" xmlns:xlink="http://www.w3.org/1999/xlink" id="Capa_1" style="enable-background:new 0 0 861.321 861.321;zoom: 1;" xml:space="preserve" version="1.1" x="0px" y="0px" width="32px" height="32px" cursor="default" viewBox="0 0 861.321 861.321"><g fill="white"><g><path d="M697.194031,662.978821 C789.094055,700.478821 841.794067,642.67981 858.894043,618.779846 C862.394043,613.880798 860.694031,606.880798 855.394043,604.079834 L564.794006,453.180817 L429.194031,523.579834 L697.194031,662.978821  z "></path><g><path d="M21.795059,100.578804 C-25.904959,192.178802 9.595037,305.078796 101.095032,352.778809 L100.89502,353.078827 L206.795044,408.078827 L342.395081,337.67981 L315.295044,323.578827 C330.694031,309.17981 343.895081,291.978821 353.994049,272.17981 C400.994049,180.379807 365.394073,68.879814 273.99411,21.179808 C182.394058,-26.521194 69.494034,9.078801 21.795059,100.578804  z M287.194031,186.178818 C287.194031,240.278809 243.295044,284.178833 189.194031,284.178833 C135.094055,284.178833 91.194038,240.278793 91.194038,186.178802 C91.194046,132.078812 135.09407,88.178802 189.194046,88.17881 C243.295059,88.17881 287.194031,131.978821 287.194031,186.178818  z "></path><path d="M273.993988,840.07782 C338.095001,806.67981 374.694031,741.878845 374.694031,674.477844 C374.694031,645.778809 367.994019,616.578796 353.994019,589.078796 C343.795044,569.278809 330.595032,551.978821 315.295044,537.67981 C315.295044,537.67981 854.495056,257.67984 855.39502,257.17984 C860.494995,254.578827 862.494995,247.479828 858.89502,242.479828 C841.794983,218.479828 789.094971,160.679825 697.195007,198.279831 L100.994995,508.180817 L101.195007,508.480804 C37.295956,541.780823 0.594963,606.980835 0.59496,674.379822 C0.594959,703.479797 7.394945,733.078796 21.794968,760.680847 C69.494003,852.278809 182.394028,887.878845 273.993988,840.07782  z M91.194023,675.17981 C91.194023,621.078796 135.094055,577.17981 189.194031,577.17981 C243.295044,577.17981 287.194031,621.078796 287.194031,675.17981 C287.194031,729.279785 243.295029,773.17981 189.194016,773.17981 C135.09404,773.17981 91.194016,729.278809 91.194023,675.17981  z "></path></g></g></g><g></g><g></g><g></g><g></g><g></g><g></g><g></g><g></g><g></g><g></g><g></g><g></g><g></g><g></g><g></g></svg>