<?xml version="1.0" encoding="iso-8859-1" standalone="yes"?>
<!DOCTYPE svg PUBLIC "-//W3C//DTD SVG 1.1//EN" "http://www.w3.org/Graphics/SVG/1.1/DTD/svg11.dtd">
<!-- Generator: Adobe Illustrator 16.0.0, SVG Export Plug-In . SVG Version: 6.00 Build 0)  --><svg xmlns="http://www.w3.org/2000/svg" xmlns:xlink="http://www.w3.org/1999/xlink" version="1.1" id="Capa_1" x="0px" y="0px" width="32px" height="32px" viewBox="0 0 961.5 961.5" style="enable-background:new 0 0 961.5 961.5;zoom: 1;" xml:space="preserve"><g><path d="M500.6,21.4l67.7,426.3l42.5-309c3.9-86.6-50.6-120.6-83.3-133.2C515.5,0.9,502.3,8.7,500.6,21.4z"></path><path d="M294.7,959.1c60.6,9.5,119-11.199,159.7-51c-20-27.399-40.801-96.399-41.101-98.3C403,835.4,381.9,856.5,353.7,866 c-51.3,17.3-106.9-10.3-124.1-61.6c-17.3-51.301,10.3-106.9,61.6-124.101c39.5-13.3,81.5,0,106.6,30.2L379.9,596.1 c-9.2-2.899-18.7-5.1-28.5-6.6c-102-15.3-196.4,54-212.4,155.9C123,847.3,192.7,943,294.7,959.1z"></path><path d="M469.5,855.9 c3.3,6.899 7.1,13.6 11.3,20.1 c33.8,52.3 92.601,85.5 156.8,85.5 c9.7,0 19.4,-0.8 29.301,-2.3 C768.8,943 838.5,847.3 822.5,745.4 c-14.5,-92.4 -93.5,-158 -184.2,-158 c-9.3,0 -18.7,0.699 -28.2,2.1 c-22,3.3 -42.6,10.3 -61.1,20.3 L455.4,8.5 c-0.801,-5 -5.101,-8.5 -9.9,-8.5 c-1,0 -1.9,0.1 -2.9,0.4 c-28.199,8.5 -99.8,40.1 -93.5,139.1 c0.101,0.7 102.7,658 103.101,660.4 C455.2,819.2 461,838.3 469.5,855.9 C469.4,855.8 469.4,855.8 469.5,855.9  z M546.2,741.9 C560,701 598.1,675.1 639.1,675.1 c10.4,0 20.9,1.7 31.301,5.101 C721.7,697.5 749.3,753 732,804.3 c-13.8,40.9 -51.9,66.8 -92.9,66.8 c-10.399,0 -20.899,-1.699 -31.3,-5.1 C556.6,848.8 529,793.2 546.2,741.9  z "></path></g><g></g><g></g><g></g><g></g><g></g><g></g><g></g><g></g><g></g><g></g><g></g><g></g><g></g><g></g><g></g></svg>